<svg width="336" height="224" viewBox="0 0 336 224" fill="none" xmlns="http://www.w3.org/2000/svg">
<g clip-path="url(#clip0_798_2221)">
<path d="M261.414 74.1752C261.414 67.3651 266.935 61.8438 273.746 61.8438H49.0493C42.2386 61.8438 36.7178 67.3646 36.7178 74.1752C36.7178 80.9854 42.2386 86.5067 49.0493 86.5067H273.745C266.935 86.5067 261.414 80.9854 261.414 74.1752Z" fill="#FFE0DA"/>
<path d="M311.195 101.627H298.322C294.147 101.627 290.762 98.2425 290.762 94.0666C290.762 89.8911 287.377 86.5059 283.201 86.5059H103.964C108.139 86.5059 111.524 89.8906 111.524 94.0666C111.524 98.242 108.14 101.627 103.964 101.627H90.4699C82.7011 101.627 76.4033 107.925 76.4033 115.694C76.4033 123.463 82.7011 129.76 90.4699 129.76H311.195C318.964 129.76 325.262 123.463 325.262 115.694C325.262 107.925 318.964 101.627 311.195 101.627Z" fill="#FFE0DA"/>
<path d="M85.4923 30.2737H93.3965C95.9605 30.2737 98.0386 32.3523 98.0386 34.9158C98.0386 37.4798 100.117 39.5579 102.681 39.5579H243.575C241.011 39.5579 238.933 37.4793 238.933 34.9158C238.933 32.3518 241.012 30.2737 243.575 30.2737H251.86C256.63 30.2737 260.497 26.4066 260.497 21.6369C260.497 16.8666 256.63 13 251.86 13H85.4923C80.7226 13 76.8555 16.8671 76.8555 21.6369C76.8555 26.4066 80.7226 30.2737 85.4923 30.2737Z" fill="#FFE0DA"/>
<path d="M301.862 148.225H38.8164C47.7179 148.225 54.9341 155.441 54.9341 164.342C54.9341 173.244 47.7179 180.46 38.8164 180.46H301.862C310.763 180.46 317.98 173.244 317.98 164.342C317.98 155.441 310.763 148.225 301.862 148.225Z" fill="#FFE0DA"/>
<path d="M294.453 50.849H287.67C284.552 50.849 282.024 48.3217 282.024 45.2041C282.024 42.0865 279.497 39.5586 276.379 39.5586H39.457C36.3394 39.5586 33.8115 42.086 33.8115 45.2041C33.8115 48.3217 36.3389 50.849 39.457 50.849H49.0489C52.0851 50.849 54.5458 53.3102 54.5458 56.3459C54.5458 59.3821 52.0846 61.8428 49.0484 61.8428H294.453C297.489 61.8428 299.95 59.3816 299.95 56.3459C299.95 53.3102 297.489 50.849 294.453 50.849Z" fill="#FFE0DA"/>
<path d="M38.8183 195.185H47.903C52.0784 195.185 55.4637 198.57 55.4637 202.746C55.4637 206.921 58.8484 210.306 63.0243 210.306H289.691C293.866 210.306 297.251 206.921 297.251 202.746C297.251 198.57 293.867 195.185 289.691 195.185H283.604C279.538 195.185 276.242 191.889 276.242 187.823C276.242 183.757 279.538 180.461 283.604 180.461H38.8183C34.7523 180.461 31.4561 183.757 31.4561 187.823C31.4561 191.889 34.7523 195.185 38.8183 195.185Z" fill="#FFE0DA"/>
<path d="M283.695 138.993C283.695 133.894 287.829 129.76 292.929 129.76H9.23322C4.13373 129.76 0 133.894 0 138.993C0 144.092 4.13373 148.226 9.23322 148.226H292.928C287.829 148.226 283.695 144.092 283.695 138.993Z" fill="#FFE0DA"/>
<path d="M10.377 210.395H336" stroke="#193A5F" stroke-miterlimit="10"/>
<path d="M228.102 194.437H71.4793C69.0583 194.437 67.0957 192.474 67.0957 190.054V77.8406C67.0957 75.4196 69.0583 73.457 71.4793 73.457H228.101C230.522 73.457 232.485 75.4196 232.485 77.8406V190.054C232.485 192.475 230.523 194.437 228.102 194.437Z" fill="#193A5F"/>
<path d="M228.102 194.437H71.4793C69.0583 194.437 67.0957 192.475 67.0957 190.054V171.568H232.484V190.054C232.485 192.475 230.523 194.437 228.102 194.437Z" fill="#FFF0ED"/>
<path d="M226.735 166.263L226.735 79.207L72.8449 79.207L72.8449 166.263L226.735 166.263Z" fill="white"/>
<path d="M226.735 166.263L226.735 79.207L72.8449 79.207L72.8449 166.263L226.735 166.263Z" fill="#DCE8FF"/>
<path d="M131.13 194.436C129.599 201.069 127.356 206.374 127.356 206.374H172.227C172.227 206.374 169.984 201.069 168.453 194.436H131.13Z" fill="#BFC3CE"/>
<path d="M169.623 198.869C169.22 197.501 168.818 196.006 168.455 194.436H131.133C130.77 196.006 130.368 197.501 129.965 198.869H169.623Z" fill="#FFEDEA"/>
<path d="M180.598 206.16H118.985C116.733 206.16 114.907 207.986 114.907 210.238H184.676C184.676 207.986 182.851 206.16 180.598 206.16Z" fill="#193A5F"/>
<mask id="mask0_798_2221" style="mask-type:luminance" maskUnits="userSpaceOnUse" x="72" y="79" width="155" height="88">
<path d="M226.734 166.263L226.734 79.207L72.8439 79.207L72.8439 166.263L226.734 166.263Z" fill="white"/>
</mask>
<g mask="url(#mask0_798_2221)">
<path d="M129.695 157.079H170.34C171.147 154.842 171.883 152.672 172.346 151.022C172.894 149.072 172.76 138.377 172.76 138.377C172.76 138.377 162.066 133.578 161.351 132.931C157.845 129.761 157.023 117.436 157.023 117.436H143.533C143.533 117.436 142.83 127.675 139.98 132.681C139.269 133.93 128.235 138.79 128.113 138.377L128.326 149.976L129.695 157.079Z" fill="#FEBFA7"/>
<path d="M158.419 127.124C157.531 122.651 157.023 117.436 157.023 117.436H143.533C143.533 117.436 142.477 125.988 140.629 131.611C145.53 132.164 154.891 131.522 158.419 127.124Z" fill="#EBA083"/>
<path d="M160.815 114.093C160.815 114.093 160.673 109.616 164.421 109.784C166.812 109.891 166.966 112.087 165.061 114.89C164.259 116.07 164.142 118.764 163.155 119.616C161.955 120.653 160.987 119.013 160.637 118.267C160.058 117.033 160.815 114.093 160.815 114.093Z" fill="#FEBFA7"/>
<path d="M163.219 111.776C163.927 110.797 164.797 111.449 165.178 112.374C165.559 113.299 164.688 114.496 164.688 114.496C164.688 114.496 165.178 112.81 164.47 112.374C163.763 111.939 162.026 113.179 162.622 114.354C163.219 115.529 164.089 115.638 163.545 116.236C163.001 116.834 163.6 117.487 162.675 117.759C161.75 118.031 162.185 117.542 162.131 116.128C162.076 114.713 162.076 116.128 162.185 114.713C162.295 113.299 162.611 112.618 163.219 111.776Z" fill="#EBA083"/>
<path d="M139.741 114.093C139.741 114.093 139.883 109.616 136.136 109.784C133.744 109.891 133.59 112.087 135.495 114.89C136.297 116.07 136.415 118.764 137.402 119.616C138.602 120.653 139.57 119.013 139.92 118.267C140.498 117.033 139.741 114.093 139.741 114.093Z" fill="#FEBFA7"/>
<path d="M137.341 111.776C136.634 110.797 135.764 111.449 135.383 112.374C135.002 113.299 135.872 114.496 135.872 114.496C135.872 114.496 135.383 112.81 136.09 112.374C136.797 111.939 138.534 113.179 137.938 114.354C137.341 115.529 136.471 115.638 137.015 116.236C137.559 116.834 136.961 117.487 137.886 117.759C138.81 118.031 138.375 117.542 138.43 116.128C138.484 114.713 138.484 116.128 138.375 114.713C138.266 113.299 137.95 112.618 137.341 111.776Z" fill="#EBA083"/>
<path d="M164.234 105.355C164.121 106.804 163.82 107.744 163.412 109.896C163.315 110.414 163.209 111.006 163.101 111.693C162.25 117.053 160.878 120.735 160.438 121.818C159.712 123.615 156.289 127.615 154.451 128.66C152.614 129.705 149.074 129.757 147.267 128.66C145.46 127.563 141.784 125.004 141.109 123.187C140.695 122.071 138.17 116.477 137.467 111.005C137.388 110.381 137.309 109.843 137.233 109.366C136.896 107.233 136.626 106.39 136.557 104.958C136.343 100.416 141.545 93.8902 150.557 94.0195C161.216 94.1721 164.581 100.821 164.234 105.355Z" fill="#FEBFA7"/>
<path d="M164.928 102.457C164.859 102.592 164.088 107.9 163.776 108.736C163.298 110.014 162.932 110.938 162.932 110.938L162.402 109.743C161.422 107.528 161.92 105.136 161.903 102.714L160.859 98.1634L159.728 93.3524C167.045 91.8641 166.673 99.0574 164.928 102.457Z" fill="#222C2D"/>
<path d="M141.353 98.117L141.35 98.1379L139.038 102.808C138.671 104.974 139.422 107.052 138.293 108.936L138.229 109.043L137.384 110.455C137.384 110.455 137.152 109.624 136.83 108.444C136.593 107.574 136.04 103.128 135.901 102.5C135.856 102.304 135.817 102.113 135.784 101.929C135.197 98.5902 137.299 93.9995 140.258 93.5996L141.353 98.117Z" fill="#222C2D"/>
<path d="M164.508 97.4274C164.159 98.2899 160.86 98.1632 160.86 98.1632C160.86 98.1632 158.386 100.52 148.55 100.263C142.757 100.112 141.239 99.1997 141.154 99.3024C141.151 99.3055 141.151 99.308 141.151 99.308L140.557 99.1691L137.729 98.5082L137.15 98.3728C137.15 98.3728 136.497 97.5358 136.661 96.7008C138.398 87.8955 151.819 87.7754 155.637 88.3916C162.275 89.4622 164.897 96.4637 164.508 97.4274Z" fill="#222C2D"/>
<path d="M160.858 98.1659C160.858 98.1659 155.531 100.187 147.82 101.044C144.355 101.43 141.875 102.413 140.554 99.1718C140.554 99.1718 141.375 95.0742 147.586 94.6458C153.797 94.2174 160.858 98.1659 160.858 98.1659Z" fill="#222C2D"/>
<path d="M123.405 214.143H181.521C180.744 205.341 177.645 182.116 176.53 170.936C175.518 160.794 175.122 138.079 175.122 138.079L161.859 133.166C161.859 133.166 160.244 140.662 150.8 140.662C140.005 140.662 138.671 133.809 138.671 133.809C133.433 135.259 125.858 138.079 125.858 138.079C125.858 138.079 126.409 169.568 124.35 190.669C123.657 197.778 123.459 208.041 123.405 214.143Z" fill="#75769A"/>
<path d="M152.684 105.687C152.684 105.687 155.082 104.996 157.11 104.996C158.092 104.996 158.877 105.859 159.157 106.378C159.222 106.499 159.293 106.895 159.167 107.115C159.167 107.115 158.063 106.499 157.593 106.499C157.023 106.499 155.543 106.392 154.167 106.347C153.333 106.318 152.545 106.013 152.684 105.687Z" fill="#222C2D"/>
<path d="M148.117 105.687C148.117 105.687 145.719 104.996 143.691 104.996C142.708 104.996 141.923 105.859 141.643 106.378C141.578 106.499 141.508 106.895 141.633 107.115C141.633 107.115 142.737 106.499 143.207 106.499C143.777 106.499 145.257 106.392 146.633 106.347C147.468 106.318 148.255 106.013 148.117 105.687Z" fill="#222C2D"/>
<path d="M153.045 120.057C152.872 120.52 152.273 121.697 150.533 121.799C150.122 121.823 149.305 121.618 148.997 121.459C147.981 120.927 147.522 120.014 147.689 120.056C148.941 120.371 151.939 120.316 153.045 120.057Z" fill="#542F38"/>
<path d="M144.203 109.095C144.203 109.683 144.679 110.159 145.267 110.159C145.855 110.159 146.331 109.683 146.331 109.095C146.331 108.508 145.855 108.031 145.267 108.031C144.679 108.032 144.203 108.508 144.203 109.095Z" fill="#222C2D"/>
<path d="M154.545 109.095C154.545 109.683 155.021 110.159 155.609 110.159C156.197 110.159 156.673 109.683 156.673 109.095C156.673 108.508 156.197 108.031 155.609 108.031C155.021 108.032 154.545 108.508 154.545 109.095Z" fill="#222C2D"/>
<path d="M150.693 117.656C150.329 117.656 149.379 117.597 148.786 117.012C148.432 116.664 148.267 116.197 148.295 115.625C148.336 114.805 148.775 113.798 149.24 112.732C149.652 111.786 150.079 110.808 150.281 109.861C150.311 109.724 150.445 109.636 150.583 109.666C150.721 109.695 150.808 109.831 150.779 109.968C150.566 110.964 150.128 111.966 149.706 112.936C149.26 113.957 148.84 114.923 148.803 115.65C148.782 116.077 148.893 116.403 149.141 116.649C149.708 117.207 150.796 117.145 150.807 117.145C150.948 117.137 151.068 117.242 151.077 117.382C151.087 117.522 150.981 117.643 150.841 117.652C150.831 117.653 150.778 117.656 150.693 117.656Z" fill="#222C2D"/>
<path d="M175.11 137.986C175.11 137.986 174.147 160.795 173.826 166.899C173.505 173.002 179.929 186.174 179.929 187.78C179.929 189.386 173.183 194.205 168.686 198.381C164.188 202.558 160.311 206.338 160.311 206.338C160.311 206.338 164.831 210.91 165.795 213.801C165.795 213.801 175.754 210.268 182.821 206.734C189.888 203.2 194.707 200.309 195.992 197.097C197.277 193.884 196.313 181.676 194.385 173.646C192.458 165.614 190.53 158.226 185.069 147.946C181.439 141.113 175.11 137.986 175.11 137.986Z" fill="#75769A"/>
<path d="M125.637 138.305C118.891 142.802 112.787 150.833 111.18 158.864C109.574 166.896 103.215 185.362 102.866 190.211C102.186 199.663 106.078 200.491 109.612 200.812C113.146 201.133 118.928 199.07 121.82 198.427C124.711 197.785 126.96 197.143 126.96 197.143C126.96 197.143 126.296 194.546 127.016 192.321C128.034 189.173 130.604 186.285 132.854 186.285C132.854 186.285 130.134 184.565 125.316 183.441C123.413 182.997 121.3 182.638 121.3 182.638C121.3 182.638 126.279 175.892 128.85 171.715C131.419 167.538 125.637 138.305 125.637 138.305Z" fill="#75769A"/>
<path d="M176.955 180.017C176.955 180.017 174.963 168.919 177.24 160.098" stroke="#222C2D" stroke-miterlimit="10"/>
<path d="M125.167 176.884C125.167 176.884 127.159 168.347 126.305 161.518" stroke="#222C2D" stroke-miterlimit="10"/>
</g>
<path d="M176.118 162.669C179.614 162.669 182.448 159.835 182.448 156.34C182.448 152.844 179.614 150.01 176.118 150.01C172.622 150.01 169.788 152.844 169.788 156.34C169.788 159.835 172.622 162.669 176.118 162.669Z" fill="#DC1238"/>
<path d="M158.611 162.669C162.107 162.669 164.941 159.835 164.941 156.34C164.941 152.844 162.107 150.01 158.611 150.01C155.115 150.01 152.281 152.844 152.281 156.34C152.281 159.835 155.115 162.669 158.611 162.669Z" fill="#586AFF"/>
<path d="M142.368 162.669C145.864 162.669 148.698 159.835 148.698 156.34C148.698 152.844 145.864 150.01 142.368 150.01C138.872 150.01 136.038 152.844 136.038 156.34C136.038 159.835 138.872 162.669 142.368 162.669Z" fill="#586AFF"/>
<path d="M126.126 162.669C129.622 162.669 132.456 159.835 132.456 156.34C132.456 152.844 129.622 150.01 126.126 150.01C122.63 150.01 119.796 152.844 119.796 156.34C119.796 159.835 122.63 162.669 126.126 162.669Z" fill="#586AFF"/>
<path d="M124.189 154.961H122.528V157.717H124.189V154.961Z" stroke="white" stroke-width="0.75" stroke-miterlimit="10" stroke-linecap="round" stroke-linejoin="round"/>
<path d="M124.188 157.797L127.253 159.205V153.475L124.188 154.883V157.797Z" stroke="white" stroke-width="0.75" stroke-miterlimit="10" stroke-linecap="round" stroke-linejoin="round"/>
<path d="M129.236 153.941C130.561 155.266 130.561 157.415 129.236 158.74" stroke="white" stroke-width="0.75" stroke-miterlimit="10" stroke-linecap="round" stroke-linejoin="round"/>
<path d="M128.261 155.055C128.972 155.766 128.972 156.918 128.261 157.628" stroke="white" stroke-width="0.75" stroke-miterlimit="10" stroke-linecap="round" stroke-linejoin="round"/>
<path d="M145.611 155.725C145.611 157.439 144.221 158.829 142.507 158.829C140.792 158.829 139.402 157.439 139.402 155.725" stroke="white" stroke-width="0.75" stroke-miterlimit="10" stroke-linecap="round" stroke-linejoin="round"/>
<path d="M142.506 157.521C141.568 157.521 140.809 156.761 140.809 155.824V154.134C140.809 153.197 141.568 152.438 142.506 152.438C143.443 152.438 144.202 153.197 144.202 154.134V155.824C144.202 156.761 143.443 157.521 142.506 157.521Z" stroke="white" stroke-width="0.75" stroke-miterlimit="10" stroke-linecap="round" stroke-linejoin="round"/>
<path d="M142.508 159.119V160.248" stroke="white" stroke-width="0.75" stroke-miterlimit="10" stroke-linecap="round" stroke-linejoin="round"/>
<path d="M159.146 158.271H155.915C155.455 158.271 155.081 157.898 155.081 157.437V155.148C155.081 154.688 155.455 154.314 155.915 154.314H159.146C159.607 154.314 159.98 154.688 159.98 155.148V157.437C159.98 157.898 159.607 158.271 159.146 158.271Z" stroke="white" stroke-width="0.75" stroke-miterlimit="10" stroke-linecap="round" stroke-linejoin="round"/>
<path d="M162.052 158.784L159.979 157.533V155.147L162.052 153.896V158.784Z" stroke="white" stroke-width="0.75" stroke-miterlimit="10" stroke-linecap="round" stroke-linejoin="round"/>
<path d="M157.093 155.876C157.093 156.149 156.872 156.37 156.599 156.37C156.326 156.37 156.105 156.149 156.105 155.876C156.105 155.604 156.326 155.383 156.599 155.383C156.872 155.383 157.093 155.604 157.093 155.876Z" fill="white"/>
<path d="M178.793 155.104H173.932C172.911 155.119 172.091 155.952 172.091 156.973V157.075C172.091 157.354 172.317 157.579 172.595 157.579H174.149C174.375 157.579 174.574 157.429 174.634 157.211C174.762 156.755 175.14 156.413 175.607 156.333H177.12C177.586 156.413 177.965 156.755 178.092 157.211C178.153 157.428 178.351 157.579 178.577 157.579H180.131C180.41 157.579 180.636 157.354 180.636 157.075V156.973C180.635 155.952 179.815 155.119 178.793 155.104Z" stroke="white" stroke-width="0.75" stroke-miterlimit="10" stroke-linecap="round" stroke-linejoin="round"/>
<path d="M228.955 26.9238H133.152C130.523 26.9238 128.392 29.0548 128.392 31.6834V55.9897C128.392 58.6183 130.523 60.7498 133.152 60.7498H137.029V69.3215L150.855 60.7498H228.956C231.584 60.7498 233.715 58.6188 233.715 55.9897V31.6834C233.715 29.0548 231.584 26.9238 228.955 26.9238Z" fill="#193A5F"/>
<path d="M218.571 38.5042C219.735 38.5042 220.679 37.5606 220.679 36.3966C220.679 35.2327 219.735 34.2891 218.571 34.2891C217.407 34.2891 216.464 35.2327 216.464 36.3966C216.464 37.5606 217.407 38.5042 218.571 38.5042Z" fill="#FDF9F8"/>
<path d="M172.781 35.6797H172.429C172.408 35.5784 172.372 35.4893 172.319 35.4126C172.268 35.3359 172.206 35.2715 172.132 35.2195C172.059 35.1664 171.978 35.1267 171.889 35.1001C171.8 35.0736 171.707 35.0604 171.611 35.0604C171.434 35.0604 171.275 35.1049 171.132 35.1939C170.99 35.2829 170.877 35.4141 170.792 35.5874C170.709 35.7607 170.667 35.9732 170.667 36.2251C170.667 36.477 170.709 36.6896 170.792 36.8629C170.877 37.0362 170.99 37.1674 171.132 37.2564C171.275 37.3454 171.434 37.3899 171.611 37.3899C171.707 37.3899 171.8 37.3767 171.889 37.3501C171.978 37.3236 172.059 37.2843 172.132 37.2322C172.206 37.1792 172.268 37.1143 172.319 37.0376C172.372 36.96 172.408 36.871 172.429 36.7706H172.781C172.755 36.9193 172.706 37.0523 172.636 37.1697C172.566 37.2872 172.479 37.3871 172.375 37.4695C172.271 37.5509 172.154 37.6129 172.024 37.6555C171.895 37.6982 171.757 37.7195 171.611 37.7195C171.363 37.7195 171.142 37.6589 170.949 37.5376C170.756 37.4164 170.604 37.2441 170.493 37.0206C170.382 36.7971 170.327 36.532 170.327 36.2251C170.327 35.9183 170.382 35.6532 170.493 35.4297C170.604 35.2062 170.756 35.0339 170.949 34.9126C171.142 34.7914 171.363 34.7308 171.611 34.7308C171.757 34.7308 171.895 34.7521 172.024 34.7947C172.154 34.8374 172.271 34.8999 172.375 34.9822C172.479 35.0637 172.566 35.1631 172.636 35.2805C172.706 35.397 172.755 35.5301 172.781 35.6797ZM173.35 37.6797V34.7706H174.333C174.561 34.7706 174.747 34.8094 174.893 34.8871C175.039 34.9638 175.147 35.0694 175.217 35.2038C175.287 35.3383 175.322 35.4912 175.322 35.6626C175.322 35.834 175.287 35.986 175.217 36.1186C175.147 36.2512 175.039 36.3554 174.894 36.4311C174.749 36.5059 174.564 36.5433 174.339 36.5433H173.544V36.2251H174.328C174.483 36.2251 174.608 36.2024 174.703 36.157C174.798 36.1115 174.867 36.0471 174.91 35.9638C174.954 35.8795 174.975 35.7791 174.975 35.6626C174.975 35.5462 174.954 35.4444 174.91 35.3572C174.866 35.2701 174.797 35.2029 174.701 35.1555C174.606 35.1072 174.479 35.0831 174.322 35.0831H173.703V37.6797H173.35ZM174.72 36.3729L175.436 37.6797H175.026L174.322 36.3729H174.72ZM175.909 37.6797V34.7706H177.665V35.0831H176.261V36.0661H177.574V36.3786H176.261V37.3672H177.687V37.6797H175.909ZM178.419 37.6797H178.05L179.118 34.7706H179.481L180.55 37.6797H180.18L179.311 35.2308H179.288L178.419 37.6797ZM178.555 36.5433H180.044V36.8558H178.555V36.5433ZM180.504 35.0831V34.7706H182.686V35.0831H181.771V37.6797H181.419V35.0831H180.504ZM183.581 34.7706V37.6797H183.229V34.7706H183.581ZM184.407 34.7706L185.271 37.2195H185.305L186.169 34.7706H186.538L185.47 37.6797H185.106L184.038 34.7706H184.407ZM186.991 37.6797V34.7706H188.747V35.0831H187.343V36.0661H188.656V36.3786H187.343V37.3672H188.769V37.6797H186.991ZM191.404 37.6797H190.507V34.7706H191.444C191.726 34.7706 191.968 34.8288 192.169 34.9453C192.369 35.0608 192.523 35.227 192.63 35.4439C192.737 35.6598 192.791 35.9183 192.791 36.2195C192.791 36.5225 192.737 36.7834 192.629 37.0021C192.521 37.2199 192.364 37.3875 192.157 37.505C191.951 37.6214 191.7 37.6797 191.404 37.6797ZM190.859 37.3672H191.382C191.622 37.3672 191.821 37.3208 191.98 37.228C192.138 37.1352 192.256 37.0031 192.333 36.8317C192.411 36.6603 192.45 36.4562 192.45 36.2195C192.45 35.9846 192.411 35.7824 192.335 35.6129C192.258 35.4425 192.143 35.3118 191.991 35.2209C191.838 35.129 191.649 35.0831 191.421 35.0831H190.859V37.3672ZM193.734 34.7706V37.6797H193.382V34.7706H193.734ZM194.44 37.6797V34.7706H195.423C195.65 34.7706 195.837 34.8094 195.983 34.8871C196.129 34.9638 196.237 35.0694 196.307 35.2038C196.377 35.3383 196.412 35.4912 196.412 35.6626C196.412 35.834 196.377 35.986 196.307 36.1186C196.237 36.2512 196.129 36.3554 195.984 36.4311C195.839 36.5059 195.654 36.5433 195.429 36.5433H194.633V36.2251H195.417C195.573 36.2251 195.698 36.2024 195.792 36.157C195.888 36.1115 195.957 36.0471 196 35.9638C196.043 35.8795 196.065 35.7791 196.065 35.6626C196.065 35.5462 196.043 35.4444 196 35.3572C195.956 35.2701 195.887 35.2029 195.791 35.1555C195.695 35.1072 195.569 35.0831 195.412 35.0831H194.792V37.6797H194.44ZM195.809 36.3729L196.525 37.6797H196.116L195.412 36.3729H195.809ZM196.999 37.6797V34.7706H198.754V35.0831H197.351V36.0661H198.664V36.3786H197.351V37.3672H198.777V37.6797H196.999ZM201.73 35.6797H201.378C201.357 35.5784 201.321 35.4893 201.269 35.4126C201.218 35.3359 201.155 35.2715 201.081 35.2195C201.008 35.1664 200.927 35.1267 200.838 35.1001C200.749 35.0736 200.656 35.0604 200.56 35.0604C200.384 35.0604 200.224 35.1049 200.081 35.1939C199.939 35.2829 199.826 35.4141 199.742 35.5874C199.658 35.7607 199.617 35.9732 199.617 36.2251C199.617 36.477 199.658 36.6896 199.742 36.8629C199.826 37.0362 199.939 37.1674 200.081 37.2564C200.224 37.3454 200.384 37.3899 200.56 37.3899C200.656 37.3899 200.749 37.3767 200.838 37.3501C200.927 37.3236 201.008 37.2843 201.081 37.2322C201.155 37.1792 201.218 37.1143 201.269 37.0376C201.321 36.96 201.357 36.871 201.378 36.7706H201.73C201.704 36.9193 201.655 37.0523 201.585 37.1697C201.515 37.2872 201.428 37.3871 201.324 37.4695C201.22 37.5509 201.103 37.6129 200.973 37.6555C200.844 37.6982 200.707 37.7195 200.56 37.7195C200.312 37.7195 200.091 37.6589 199.898 37.5376C199.705 37.4164 199.553 37.2441 199.442 37.0206C199.331 36.7971 199.276 36.532 199.276 36.2251C199.276 35.9183 199.331 35.6532 199.442 35.4297C199.553 35.2062 199.705 35.0339 199.898 34.9126C200.091 34.7914 200.312 34.7308 200.56 34.7308C200.707 34.7308 200.844 34.7521 200.973 34.7947C201.103 34.8374 201.22 34.8999 201.324 34.9822C201.428 35.0637 201.515 35.1631 201.585 35.2805C201.655 35.397 201.704 35.5301 201.73 35.6797ZM202.14 35.0831V34.7706H204.322V35.0831H203.407V37.6797H203.055V35.0831H202.14ZM207.199 36.2251C207.199 36.532 207.144 36.7971 207.033 37.0206C206.922 37.2441 206.77 37.4164 206.577 37.5376C206.384 37.6589 206.163 37.7195 205.915 37.7195C205.667 37.7195 205.447 37.6589 205.253 37.5376C205.06 37.4164 204.908 37.2441 204.797 37.0206C204.687 36.7971 204.631 36.532 204.631 36.2251C204.631 35.9183 204.687 35.6532 204.797 35.4297C204.908 35.2062 205.06 35.0339 205.253 34.9126C205.447 34.7914 205.667 34.7308 205.915 34.7308C206.163 34.7308 206.384 34.7914 206.577 34.9126C206.77 35.0339 206.922 35.2062 207.033 35.4297C207.144 35.6532 207.199 35.9183 207.199 36.2251ZM206.858 36.2251C206.858 35.9732 206.816 35.7607 206.732 35.5874C206.649 35.4141 206.536 35.2829 206.393 35.1939C206.251 35.1049 206.091 35.0604 205.915 35.0604C205.739 35.0604 205.58 35.1049 205.437 35.1939C205.295 35.2829 205.181 35.4141 205.097 35.5874C205.014 35.7607 204.972 35.9732 204.972 36.2251C204.972 36.477 205.014 36.6896 205.097 36.8629C205.181 37.0362 205.295 37.1674 205.437 37.2564C205.58 37.3454 205.739 37.3899 205.915 37.3899C206.091 37.3899 206.251 37.3454 206.393 37.2564C206.536 37.1674 206.649 37.0362 206.732 36.8629C206.816 36.6896 206.858 36.477 206.858 36.2251ZM207.792 37.6797V34.7706H208.775C209.002 34.7706 209.189 34.8094 209.334 34.8871C209.48 34.9638 209.588 35.0694 209.658 35.2038C209.728 35.3383 209.763 35.4912 209.763 35.6626C209.763 35.834 209.728 35.986 209.658 36.1186C209.588 36.2512 209.481 36.3554 209.336 36.4311C209.191 36.5059 209.006 36.5433 208.78 36.5433H207.985V36.2251H208.769C208.924 36.2251 209.049 36.2024 209.144 36.157C209.24 36.1115 209.309 36.0471 209.351 35.9638C209.395 35.8795 209.417 35.7791 209.417 35.6626C209.417 35.5462 209.395 35.4444 209.351 35.3572C209.308 35.2701 209.238 35.2029 209.143 35.1555C209.047 35.1072 208.921 35.0831 208.763 35.0831H208.144V37.6797H207.792ZM209.161 36.3729L209.877 37.6797H209.468L208.763 36.3729H209.161Z" fill="white"/>
<path d="M225.797 41.6895H171.161V43.333H225.797V41.6895Z" fill="white"/>
<path d="M225.797 46.2012H171.161V47.8447H225.797V46.2012Z" fill="white"/>
<path d="M196.234 50.7188H171.161V52.3623H196.234V50.7188Z" fill="white"/>
<mask id="mask1_798_2221" style="mask-type:luminance" maskUnits="userSpaceOnUse" x="137" y="30" width="26" height="26">
<path d="M159.497 55.574H140.516C138.968 55.574 137.713 54.3192 137.713 52.7714V33.789C137.713 32.2411 138.968 30.9863 140.516 30.9863H159.497C161.045 30.9863 162.3 32.2411 162.3 33.789V52.7708C162.3 54.3192 161.045 55.574 159.497 55.574Z" fill="white"/>
</mask>
<g mask="url(#mask1_798_2221)">
<path d="M162.303 30.9844H137.715V55.572H162.303V30.9844Z" fill="#586AFF"/>
</g>
<mask id="mask2_798_2221" style="mask-type:luminance" maskUnits="userSpaceOnUse" x="137" y="30" width="26" height="26">
<path d="M159.497 55.574H140.516C138.968 55.574 137.713 54.3192 137.713 52.7714V33.789C137.713 32.2411 138.968 30.9863 140.516 30.9863H159.497C161.045 30.9863 162.3 32.2411 162.3 33.789V52.7708C162.3 54.3192 161.045 55.574 159.497 55.574Z" fill="white"/>
</mask>
<g mask="url(#mask2_798_2221)">
<path d="M142.839 58.5097H156.997C157.222 57.8717 157.425 57.2651 157.558 56.7879C157.747 56.1177 157.7 52.4445 157.7 52.4445C157.7 52.4445 154.027 50.7959 153.782 50.5735C152.577 49.4846 152.295 44.7266 152.295 44.7266H147.661C147.661 44.7266 147.419 48.7677 146.44 50.4875C146.196 50.9165 142.406 52.5859 142.364 52.4445L142.438 56.4286L142.839 58.5097Z" fill="#FEBFA7"/>
<path d="M152.696 47.8197C152.391 46.2836 152.298 44.7266 152.298 44.7266H147.664C147.664 44.7266 147.493 47.577 146.858 49.5085C148.542 49.6988 151.484 49.331 152.696 47.8197Z" fill="#FDA99B"/>
<path d="M153.599 43.5794C153.599 43.5794 153.55 42.0417 154.838 42.0992C155.659 42.1364 155.712 42.8905 155.057 43.8532C154.782 44.2587 154.741 45.1838 154.403 45.4763C153.99 45.8325 153.658 45.2692 153.538 45.0128C153.339 44.5894 153.599 43.5794 153.599 43.5794Z" fill="#FEBFA7"/>
<path d="M154.426 42.7804C154.668 42.4441 154.967 42.6685 155.098 42.986C155.229 43.3035 154.93 43.7146 154.93 43.7146C154.93 43.7146 155.098 43.1356 154.855 42.986C154.612 42.8364 154.015 43.2623 154.22 43.6663C154.426 44.0698 154.724 44.1074 154.537 44.313C154.351 44.5186 154.556 44.743 154.238 44.8361C153.921 44.9297 154.07 44.7613 154.052 44.2754C154.033 43.7894 154.033 44.2754 154.07 43.7894C154.107 43.3035 154.216 43.0699 154.426 42.7804Z" fill="#FDA99B"/>
<path d="M146.36 43.5794C146.36 43.5794 146.409 42.0417 145.121 42.0992C144.3 42.1364 144.247 42.8905 144.901 43.8532C145.177 44.2587 145.217 45.1838 145.556 45.4763C145.968 45.8325 146.301 45.2692 146.421 45.0128C146.62 44.5894 146.36 43.5794 146.36 43.5794Z" fill="#FEBFA7"/>
<path d="M145.537 42.7804C145.294 42.4441 144.995 42.6685 144.864 42.986C144.733 43.3035 145.033 43.7146 145.033 43.7146C145.033 43.7146 144.864 43.1356 145.107 42.986C145.35 42.8364 145.947 43.2623 145.742 43.6663C145.537 44.0698 145.238 44.1074 145.425 44.313C145.612 44.5186 145.406 44.743 145.724 44.8361C146.041 44.9297 145.892 44.7613 145.91 44.2754C145.929 43.7894 145.929 44.2754 145.891 43.7894C145.855 43.3035 145.746 43.0699 145.537 42.7804Z" fill="#FDA99B"/>
<path d="M154.775 40.5753C154.737 41.0735 154.633 41.3961 154.493 42.1354C154.46 42.3135 154.423 42.5165 154.386 42.7526C154.093 44.5936 153.622 45.8585 153.471 46.2305C153.222 46.8477 152.046 48.2215 151.414 48.5808C150.784 48.94 149.567 48.9578 148.947 48.5808C148.326 48.2037 147.063 47.325 146.831 46.7006C146.689 46.3175 145.822 44.3956 145.581 42.5165C145.553 42.3018 145.526 42.1171 145.5 41.9538C145.384 41.221 145.291 40.931 145.268 40.4395C145.195 38.8794 146.981 36.638 150.077 36.6823C153.739 36.7342 154.894 39.0183 154.775 40.5753Z" fill="#FEBFA7"/>
<path d="M155.013 39.5812C155.002 39.6321 154.724 41.4512 154.617 41.7382C154.453 42.1773 154.327 42.4948 154.327 42.4948L154.145 42.0842C153.809 41.3235 153.98 40.5017 153.974 39.6698L153.615 38.1066L154.142 37.6543C155.164 37.8217 155.265 38.4165 155.013 39.5812Z" fill="#222C2D"/>
<path d="M146.914 38.0914L146.913 38.0986L146.118 39.7029C145.992 40.4468 146.25 41.1607 145.862 41.8074L145.841 41.8441L145.55 42.3295C145.55 42.3295 145.471 42.044 145.36 41.6385C145.279 41.3398 145.089 39.8128 145.041 39.5971C145.025 39.5294 145.012 39.4643 145.001 39.4007C144.799 38.2538 145.018 37.778 146.035 37.6406L146.914 38.0914Z" fill="#222C2D"/>
<path d="M154.867 37.8527C154.747 38.1488 153.614 38.1055 153.614 38.1055C153.614 38.1055 152.764 38.9151 149.386 38.8271C147.396 38.7752 146.874 38.4617 146.845 38.4968C146.844 38.4979 146.844 38.4989 146.844 38.4989L146.64 38.451L145.669 38.2241L145.47 38.1778C145.47 38.1778 145.737 37.3387 145.874 37.0802C147.142 34.6898 150.245 35.1401 151.556 35.3518C153.837 35.7191 155.001 37.5214 154.867 37.8527Z" fill="#222C2D"/>
<path d="M150.144 42.8027C150.103 43.6362 149.407 44.3414 149.54 44.7821C149.605 44.9953 150.02 45.1988 150.02 45.1988" stroke="#2E353D" stroke-width="0.8504" stroke-miterlimit="10" stroke-linecap="round"/>
<path d="M151.997 42.049C151.997 42.2724 151.866 42.4536 151.703 42.4536C151.541 42.4536 151.409 42.2724 151.409 42.049C151.409 41.8257 151.541 41.6445 151.703 41.6445C151.866 41.6445 151.997 41.8257 151.997 42.049Z" fill="#222C2D"/>
<path d="M148.803 42.049C148.803 42.2724 148.671 42.4536 148.509 42.4536C148.347 42.4536 148.215 42.2724 148.215 42.049C148.215 41.8257 148.347 41.6445 148.509 41.6445C148.671 41.6445 148.803 41.8257 148.803 42.049Z" fill="#222C2D"/>
<path d="M151.21 40.8741C150.818 40.9825 150.914 41.355 151.274 41.2776C151.633 41.2003 152.159 41.21 152.608 41.2853C153.057 41.3606 152.706 41.0365 152.295 40.9281C151.884 40.8202 151.607 40.7642 151.21 40.8741Z" fill="#222C2D"/>
<path d="M149.087 40.9446C149.464 41.0942 149.328 41.4545 148.98 41.339C148.631 41.2235 148.107 41.1772 147.652 41.2036C147.198 41.2306 147.582 40.9456 148.002 40.882C148.422 40.8189 148.703 40.7925 149.087 40.9446Z" fill="#222C2D"/>
<path d="M149.103 45.8479C149.103 45.8479 149.49 46.0718 150.225 46.0718C151.133 46.0718 151.483 45.793 151.483 45.793C151.483 45.793 151.037 46.8401 150.085 46.6788C149.368 46.5572 149.103 45.8479 149.103 45.8479Z" fill="#222C2D"/>
<path d="M153.616 38.1084C153.616 38.1084 152.073 39.3271 149.425 39.6212C148.235 39.7535 148.689 38.6651 148.689 38.6651C148.689 38.6651 147.095 39.5673 146.642 38.4544C146.642 38.4544 146.923 37.047 149.057 36.9C151.191 36.7519 153.616 38.1084 153.616 38.1084Z" fill="#222C2D"/>
<path d="M141.602 58.513H158.699C158.575 55.3023 158.525 52.147 158.525 52.147L153.96 50.6582C153.96 50.6582 153.406 53.2329 150.162 53.2329C146.454 53.2329 145.996 50.879 145.996 50.879C144.196 51.3772 141.595 52.346 141.595 52.346C141.595 52.346 141.641 54.9777 141.602 58.513Z" fill="#FFD71D"/>
<path d="M163.33 58.5066C162.952 57.5922 162.5 56.6224 161.936 55.5615C160.69 53.2148 158.516 52.1406 158.516 52.1406C158.516 52.1406 158.37 55.5762 158.24 58.5066H163.33Z" fill="#FFD71D"/>
<path d="M142.572 58.5093C142.197 55.496 141.587 52.3418 141.587 52.3418C139.775 53.0913 137.583 55.9321 136.771 58.5093H142.572Z" fill="#FFD71D"/>
</g>
<path d="M159.5 55.572H140.518C138.971 55.572 137.716 54.3173 137.716 52.7694V33.787C137.716 32.2392 138.971 30.9844 140.518 30.9844H159.5C161.048 30.9844 162.303 32.2392 162.303 33.787V52.7689C162.303 54.3173 161.048 55.572 159.5 55.572Z" stroke="white" stroke-width="2" stroke-miterlimit="10"/>
<path d="M277.735 65.0469H181.932C179.303 65.0469 177.172 67.1779 177.172 69.807V94.1133C177.172 96.7419 179.303 98.8734 181.932 98.8734H185.81V107.445L199.635 98.8734H277.736C280.365 98.8734 282.496 96.7424 282.496 94.1133V69.807C282.496 67.1784 280.365 65.0469 277.735 65.0469Z" fill="#FFC107"/>
<path d="M269.915 74.4474C269.915 75.6116 268.971 76.555 267.808 76.555C266.644 76.555 265.7 75.6116 265.7 74.4474C265.7 73.2832 266.644 72.3398 267.808 72.3398C268.971 72.3398 269.915 73.2832 269.915 74.4474Z" fill="#FDF9F8"/>
<path d="M220.237 75.8027V72.8936H221.22C221.448 72.8936 221.635 72.9348 221.78 73.0172C221.925 73.0987 222.033 73.209 222.104 73.3482C222.174 73.4874 222.209 73.6427 222.209 73.8141C222.209 73.9855 222.174 74.1413 222.104 74.2814C222.034 74.4216 221.927 74.5333 221.782 74.6167C221.638 74.699 221.452 74.7402 221.226 74.7402H220.521V74.4277H221.214C221.371 74.4277 221.496 74.4007 221.591 74.3468C221.685 74.2928 221.754 74.2199 221.797 74.128C221.84 74.0352 221.862 73.9306 221.862 73.8141C221.862 73.6976 221.84 73.5935 221.797 73.5016C221.754 73.4097 221.685 73.3378 221.589 73.2857C221.494 73.2327 221.367 73.2061 221.209 73.2061H220.589V75.8027H220.237ZM222.776 75.8027V72.8936H223.759C223.986 72.8936 224.173 72.9325 224.319 73.0101C224.465 73.0868 224.573 73.1924 224.643 73.3269C224.713 73.4614 224.748 73.6143 224.748 73.7857C224.748 73.9571 224.713 74.1091 224.643 74.2417C224.573 74.3742 224.465 74.4784 224.32 74.5542C224.175 74.629 223.99 74.6664 223.765 74.6664H222.969V74.3482H223.753C223.909 74.3482 224.034 74.3255 224.128 74.28C224.224 74.2346 224.293 74.1702 224.336 74.0868C224.379 74.0025 224.401 73.9022 224.401 73.7857C224.401 73.6692 224.379 73.5674 224.336 73.4803C224.292 73.3932 224.223 73.3259 224.127 73.2786C224.031 73.2303 223.905 73.2061 223.748 73.2061H223.128V75.8027H222.776ZM224.145 74.4959L224.861 75.8027H224.452L223.748 74.4959H224.145ZM227.789 74.3482C227.789 74.655 227.734 74.9202 227.623 75.1436C227.512 75.3671 227.36 75.5395 227.167 75.6607C226.974 75.7819 226.753 75.8425 226.505 75.8425C226.257 75.8425 226.036 75.7819 225.843 75.6607C225.65 75.5395 225.498 75.3671 225.387 75.1436C225.276 74.9202 225.221 74.655 225.221 74.3482C225.221 74.0414 225.276 73.7762 225.387 73.5527C225.498 73.3292 225.65 73.1569 225.843 73.0357C226.036 72.9145 226.257 72.8539 226.505 72.8539C226.753 72.8539 226.974 72.9145 227.167 73.0357C227.36 73.1569 227.512 73.3292 227.623 73.5527C227.734 73.7762 227.789 74.0414 227.789 74.3482ZM227.448 74.3482C227.448 74.0963 227.406 73.8837 227.322 73.7104C227.239 73.5371 227.125 73.406 226.982 73.3169C226.84 73.2279 226.681 73.1834 226.505 73.1834C226.329 73.1834 226.169 73.2279 226.026 73.3169C225.884 73.406 225.771 73.5371 225.687 73.7104C225.604 73.8837 225.562 74.0963 225.562 74.3482C225.562 74.6001 225.604 74.8127 225.687 74.986C225.771 75.1593 225.884 75.2904 226.026 75.3794C226.169 75.4685 226.329 75.513 226.505 75.513C226.681 75.513 226.84 75.4685 226.982 75.3794C227.125 75.2904 227.239 75.1593 227.322 74.986C227.406 74.8127 227.448 74.6001 227.448 74.3482ZM229.495 72.8936H229.847V74.9732C229.847 75.1588 229.813 75.3165 229.745 75.4462C229.677 75.5759 229.581 75.6744 229.457 75.7417C229.333 75.8089 229.186 75.8425 229.018 75.8425C228.859 75.8425 228.717 75.8136 228.593 75.7559C228.469 75.6971 228.372 75.6138 228.301 75.5059C228.23 75.3979 228.194 75.2696 228.194 75.1209H228.541C228.541 75.2033 228.561 75.2753 228.602 75.3368C228.643 75.3974 228.7 75.4448 228.772 75.4789C228.844 75.513 228.926 75.53 229.018 75.53C229.119 75.53 229.205 75.5087 229.276 75.4661C229.347 75.4235 229.401 75.361 229.438 75.2786C229.476 75.1953 229.495 75.0935 229.495 74.9732V72.8936ZM230.553 75.8027V72.8936H232.309V73.2061H230.906V74.1891H232.218V74.5016H230.906V75.4902H232.332V75.8027H230.553ZM235.285 73.8027H234.933C234.912 73.7014 234.875 73.6124 234.823 73.5357C234.772 73.459 234.71 73.3946 234.636 73.3425C234.563 73.2895 234.482 73.2497 234.393 73.2232C234.304 73.1967 234.211 73.1834 234.115 73.1834C233.938 73.1834 233.779 73.2279 233.636 73.3169C233.494 73.406 233.381 73.5371 233.296 73.7104C233.213 73.8837 233.171 74.0963 233.171 74.3482C233.171 74.6001 233.213 74.8127 233.296 74.986C233.381 75.1593 233.494 75.2904 233.636 75.3794C233.779 75.4685 233.938 75.513 234.115 75.513C234.211 75.513 234.304 75.4997 234.393 75.4732C234.482 75.4467 234.563 75.4074 234.636 75.3553C234.71 75.3023 234.772 75.2374 234.823 75.1607C234.875 75.083 234.912 74.994 234.933 74.8936H235.285C235.258 75.0423 235.21 75.1754 235.14 75.2928C235.07 75.4102 234.983 75.5101 234.879 75.5925C234.775 75.6739 234.658 75.736 234.528 75.7786C234.399 75.8212 234.261 75.8425 234.115 75.8425C233.866 75.8425 233.646 75.7819 233.453 75.6607C233.259 75.5395 233.107 75.3671 232.997 75.1436C232.886 74.9202 232.83 74.655 232.83 74.3482C232.83 74.0414 232.886 73.7762 232.997 73.5527C233.107 73.3292 233.259 73.1569 233.453 73.0357C233.646 72.9145 233.866 72.8539 234.115 72.8539C234.261 72.8539 234.399 72.8752 234.528 72.9178C234.658 72.9604 234.775 73.0229 234.879 73.1053C234.983 73.1867 235.07 73.2862 235.14 73.4036C235.21 73.5201 235.258 73.6531 235.285 73.8027ZM235.695 73.2061V72.8936H237.877V73.2061H236.962V75.8027H236.61V73.2061H235.695ZM239.546 72.8936H239.966L240.955 75.3084H240.989L241.977 72.8936H242.398V75.8027H242.068V73.5925H242.04L241.131 75.8027H240.813L239.904 73.5925H239.875V75.8027H239.546V72.8936ZM243.224 75.8027H242.854L243.922 72.8936H244.286L245.354 75.8027H244.985L244.116 73.3539H244.093L243.224 75.8027ZM243.36 74.6664H244.849V74.9789H243.36V74.6664ZM248.114 72.8936V75.8027H247.773L246.188 73.5186H246.16V75.8027H245.807V72.8936H246.148L247.739 75.1834H247.768V72.8936H248.114ZM248.938 75.8027H248.569L249.637 72.8936H250.001L251.069 75.8027H250.7L249.83 73.3539H249.808L248.938 75.8027ZM249.075 74.6664H250.563V74.9789H249.075V74.6664ZM253.374 73.8027C253.343 73.7071 253.302 73.6214 253.251 73.5456C253.2 73.4689 253.14 73.4036 253.07 73.3496C253.001 73.2956 252.922 73.2544 252.834 73.226C252.746 73.1976 252.65 73.1834 252.545 73.1834C252.372 73.1834 252.215 73.2279 252.074 73.3169C251.933 73.406 251.821 73.5371 251.738 73.7104C251.654 73.8837 251.613 74.0963 251.613 74.3482C251.613 74.6001 251.655 74.8127 251.739 74.986C251.823 75.1593 251.938 75.2904 252.081 75.3794C252.225 75.4685 252.387 75.513 252.567 75.513C252.734 75.513 252.881 75.4775 253.008 75.4064C253.135 75.3345 253.235 75.2331 253.306 75.1025C253.378 74.9708 253.414 74.816 253.414 74.638L253.522 74.6607H252.647V74.3482H253.755V74.6607C253.755 74.9003 253.704 75.1086 253.601 75.2857C253.5 75.4628 253.36 75.6001 253.181 75.6976C253.003 75.7942 252.798 75.8425 252.567 75.8425C252.31 75.8425 252.083 75.7819 251.888 75.6607C251.694 75.5395 251.543 75.3671 251.434 75.1436C251.326 74.9202 251.272 74.655 251.272 74.3482C251.272 74.1181 251.303 73.9112 251.364 73.7275C251.427 73.5428 251.515 73.3856 251.628 73.2559C251.742 73.1261 251.876 73.0267 252.032 72.9576C252.187 72.8884 252.358 72.8539 252.545 72.8539C252.698 72.8539 252.841 72.8771 252.974 72.9235C253.107 72.9689 253.226 73.0338 253.33 73.1181C253.435 73.2014 253.523 73.3013 253.593 73.4178C253.663 73.5333 253.711 73.6616 253.738 73.8027H253.374ZM254.358 75.8027V72.8936H256.114V73.2061H254.71V74.1891H256.023V74.5016H254.71V75.4902H256.137V75.8027H254.358ZM256.749 75.8027V72.8936H257.732C257.959 72.8936 258.146 72.9325 258.291 73.0101C258.437 73.0868 258.545 73.1924 258.615 73.3269C258.685 73.4614 258.72 73.6143 258.72 73.7857C258.72 73.9571 258.685 74.1091 258.615 74.2417C258.545 74.3742 258.438 74.4784 258.293 74.5542C258.148 74.629 257.963 74.6664 257.737 74.6664H256.942V74.3482H257.726C257.881 74.3482 258.006 74.3255 258.101 74.28C258.197 74.2346 258.266 74.1702 258.308 74.0868C258.352 74.0025 258.374 73.9022 258.374 73.7857C258.374 73.6692 258.352 73.5674 258.308 73.4803C258.265 73.3932 258.195 73.3259 258.1 73.2786C258.004 73.2303 257.878 73.2061 257.72 73.2061H257.101V75.8027H256.749ZM258.118 74.4959L258.834 75.8027H258.425L257.72 74.4959H258.118Z" fill="white"/>
<path d="M276.103 79.8105H219.941V81.4541H276.103V79.8105Z" fill="white"/>
<path d="M276.103 84.3223H219.941V85.9658H276.103V84.3223Z" fill="white"/>
<path d="M245.014 88.8398H219.941V90.4834H245.014V88.8398Z" fill="white"/>
<mask id="mask3_798_2221" style="mask-type:luminance" maskUnits="userSpaceOnUse" x="186" y="69" width="26" height="26">
<path d="M208.266 94.2666H189.214C187.66 94.2666 186.4 93.0073 186.4 91.4533V72.4012C186.4 70.8478 187.66 69.5879 189.214 69.5879H208.266C209.82 69.5879 211.08 70.8472 211.08 72.4012V91.4533C211.079 93.0073 209.82 94.2666 208.266 94.2666Z" fill="white"/>
</mask>
<g mask="url(#mask3_798_2221)">
<path d="M211.08 69.5879H186.401V94.2666H211.08V69.5879Z" fill="#586AFF"/>
</g>
<mask id="mask4_798_2221" style="mask-type:luminance" maskUnits="userSpaceOnUse" x="186" y="69" width="26" height="26">
<path d="M208.266 94.2666H189.214C187.66 94.2666 186.4 93.0073 186.4 91.4533V72.4012C186.4 70.8478 187.66 69.5879 189.214 69.5879H208.266C209.82 69.5879 211.08 70.8472 211.08 72.4012V91.4533C211.079 93.0073 209.82 94.2666 208.266 94.2666Z" fill="white"/>
</mask>
<g mask="url(#mask4_798_2221)">
<path d="M192.255 96.1295H204.988C205.299 95.5474 205.593 94.9719 205.789 94.5277C206.024 93.9945 206.319 90.9094 206.319 90.9094C206.319 90.9094 202.779 89.4287 202.543 89.2247C201.362 88.2055 201.229 83.3828 201.229 83.3828H196.156C196.156 83.3828 196.047 87.5186 195.117 89.1453C194.892 89.5402 191.241 91.0341 191.186 90.9094L191.621 94.2428L192.255 96.1295Z" fill="#FEBFA7"/>
<path d="M201.541 86.589C201.273 85.0309 201.227 83.3828 201.227 83.3828H196.155C196.155 83.3828 196.076 86.3473 195.493 88.2284C197.223 88.4085 200.239 88.0595 201.541 86.589Z" fill="#FDA99B"/>
<path d="M190.262 98.8174H207.512C207.338 95.1386 207.269 90.8323 207.269 90.8323L202.688 89.3379C202.688 89.3379 202.131 91.9222 198.875 91.9222C195.154 91.9222 194.694 89.5592 194.694 89.5592C192.888 90.0589 190.276 91.0313 190.276 91.0313C190.276 91.0313 190.337 94.4939 190.262 98.8174Z" fill="#26333B"/>
<path d="M201.671 82.4007C201.671 82.4007 201.605 80.9699 202.805 81.0066C203.57 81.03 203.629 81.7311 203.033 82.6363C202.782 83.0174 202.757 83.8789 202.445 84.1562C202.066 84.493 201.749 83.973 201.634 83.7364C201.442 83.3446 201.671 82.4007 201.671 82.4007Z" fill="#FEBFA7"/>
<path d="M202.371 81.7379C202.795 81.5023 203.266 81.5496 202.983 82.0203C202.701 82.4915 202.512 82.6324 202.536 83.1504C202.558 83.6262 202.136 83.645 202.136 83.645L202.371 81.7379Z" fill="#FDA99B"/>
<path d="M195.214 82.4007C195.214 82.4007 195.28 80.9699 194.081 81.0066C193.315 81.03 193.256 81.7311 193.852 82.6363C194.103 83.0174 194.129 83.8789 194.44 84.1562C194.819 84.493 195.136 83.973 195.252 83.7364C195.442 83.3446 195.214 82.4007 195.214 82.4007Z" fill="#FEBFA7"/>
<path d="M194.644 81.7379C194.22 81.5023 193.749 81.5496 194.032 82.0203C194.315 82.4915 194.503 82.6324 194.479 83.1504C194.458 83.6262 194.88 83.645 194.88 83.645L194.644 81.7379Z" fill="#FDA99B"/>
<path d="M202.885 78.8963C202.855 79.3604 202.763 79.6621 202.643 80.3521C202.615 80.5179 202.584 80.7077 202.552 80.9281C202.304 82.6459 201.99 84.9814 201.854 85.3294C201.631 85.9075 200.403 86.8432 199.821 87.1856C199.238 87.5281 197.773 87.4579 197.19 87.1154C196.607 86.773 195.29 85.9075 195.065 85.3294C194.928 84.9748 194.602 82.5716 194.352 80.8253C194.324 80.6258 194.296 80.4543 194.27 80.3022C194.152 79.6219 194.062 79.3532 194.034 78.8958C193.945 77.4446 195.578 75.334 198.46 75.334C201.868 75.335 202.975 77.4456 202.885 78.8963Z" fill="#FEBFA7"/>
<path d="M195.206 77.8051C195.206 77.8051 197.561 77.193 200.999 77.3812L201.923 76.7625C201.923 76.7625 200.292 75.8379 198.161 75.8537C196.03 75.8695 195.206 77.8051 195.206 77.8051Z" fill="#E8D4E5"/>
<path d="M197.745 79.2969C197.745 79.2969 197.003 79.3305 196.352 79.3305C196.037 79.3305 195.785 79.6073 195.695 79.7736C195.674 79.8123 195.631 80.0896 195.671 80.1604C195.671 80.1604 196.046 79.8123 196.197 79.8123C196.38 79.8123 197.083 79.8271 197.525 79.8123C197.793 79.8037 197.79 79.4017 197.745 79.2969Z" fill="#3D444D"/>
<path d="M199.133 79.2969C199.133 79.2969 199.875 79.3305 200.526 79.3305C200.842 79.3305 201.093 79.6073 201.183 79.7736C201.204 79.8123 201.248 80.0896 201.207 80.1604C201.207 80.1604 200.832 79.8123 200.681 79.8123C200.498 79.8123 199.794 79.8271 199.353 79.8123C199.086 79.8037 199.089 79.4017 199.133 79.2969Z" fill="#3D444D"/>
<path d="M199.364 84.5629C199.308 84.7115 199.116 85.0891 198.557 85.1221C198.426 85.1298 198.164 85.0641 198.064 85.0133C197.738 84.8423 197.591 84.5497 197.645 84.5629C198.046 84.6637 199.009 84.6459 199.364 84.5629Z" fill="#542F38"/>
<path d="M202.756 79.9801C202.709 80.1108 202.666 80.2279 202.629 80.3291L202.644 80.352C202.616 80.5179 202.584 80.7077 202.553 80.928C202.493 81.3463 202.428 81.8007 202.364 82.2545L201.88 82.8483C202.104 82.1685 202.251 80.7688 202.323 80.3134L202.321 80.3078C201.997 79.604 201.821 78.8413 201.805 78.0674L201.625 76.9093L200.853 76.9434C200.742 76.8294 199.065 76.8905 197.608 77.0029C195.76 77.1454 195.206 77.8033 195.206 77.8033C195.099 78.4973 194.96 79.5526 194.608 80.1602L194.588 80.1948L194.561 80.2416C194.647 80.6792 194.685 81.9818 194.945 82.6998L194.556 82.2545C194.487 81.7655 194.417 81.2735 194.353 80.8252C194.344 80.7616 194.335 80.7046 194.326 80.6461L194.324 80.6502C194.324 80.6502 194.246 80.3856 194.138 80.0096C194.058 79.7328 193.861 78.3137 193.813 78.1132C193.798 78.0506 193.784 77.99 193.773 77.931C193.604 77.0416 193.966 73.7372 199.056 74.1392C199.117 74.1438 199.177 74.1514 199.236 74.1601C200.914 74.3814 201.684 75.1716 201.684 75.1716L202.257 76.1837C203.211 76.3262 203.314 76.8782 203.094 77.9661C203.086 78.015 202.852 79.7114 202.756 79.9801Z" fill="#3D444D"/>
<path d="M196.386 80.6676C196.386 80.8564 196.538 81.009 196.727 81.009C196.916 81.009 197.069 80.8564 197.069 80.6676C197.069 80.4788 196.916 80.3262 196.727 80.3262C196.538 80.3262 196.386 80.4788 196.386 80.6676Z" fill="#451B2D"/>
<path d="M199.705 80.6676C199.705 80.8564 199.858 81.009 200.047 81.009C200.235 81.009 200.388 80.8564 200.388 80.6676C200.388 80.4788 200.235 80.3262 200.047 80.3262C199.858 80.3262 199.705 80.4788 199.705 80.6676Z" fill="#451B2D"/>
<path d="M198.341 81.1016C198.2 81.761 197.729 82.4673 197.705 82.9384C197.674 83.5541 198.435 83.5038 198.435 83.5038" stroke="#2E353D" stroke-width="0.8504" stroke-miterlimit="10" stroke-linecap="round"/>
<path d="M212.708 98.8112C212.23 97.4338 211.609 95.9623 210.704 94.2598C209.453 91.9044 207.271 90.8262 207.271 90.8262C207.271 90.8262 207.064 95.7114 206.923 98.8112H212.708Z" fill="#26333B"/>
<path d="M191.445 98.811C191.133 95.4293 190.282 91.0254 190.282 91.0254C188.271 91.8568 185.788 95.2563 185.234 98.0254C185.187 98.262 185.127 98.5271 185.058 98.8115H191.445V98.811Z" fill="#26333B"/>
<path d="M197.744 79.2949C197.744 79.2949 197.002 79.3285 196.351 79.3285C196.036 79.3285 195.784 79.6053 195.694 79.7717C195.673 79.8104 195.63 80.0877 195.67 80.1584C195.67 80.1584 196.045 79.8104 196.196 79.8104C196.379 79.8104 197.082 79.8251 197.525 79.8104C197.792 79.8017 197.789 79.3997 197.744 79.2949Z" fill="#3D444D"/>
<path d="M199.137 79.2949C199.137 79.2949 199.879 79.3285 200.53 79.3285C200.845 79.3285 201.097 79.6053 201.187 79.7717C201.208 79.8104 201.251 80.0877 201.211 80.1584C201.211 80.1584 200.836 79.8104 200.685 79.8104C200.502 79.8104 199.798 79.8251 199.357 79.8104C199.089 79.8017 199.093 79.3997 199.137 79.2949Z" fill="#3D444D"/>
<path d="M199.364 84.5629C199.308 84.7115 199.116 85.0891 198.557 85.1221C198.426 85.1298 198.164 85.0641 198.064 85.0133C197.738 84.8423 197.591 84.5497 197.645 84.5629C198.046 84.6637 199.009 84.6459 199.364 84.5629Z" fill="#3D444D"/>
<path d="M196.386 80.6656C196.386 80.8544 196.538 81.0071 196.727 81.0071C196.916 81.0071 197.069 80.8544 197.069 80.6656C197.069 80.4769 196.916 80.3242 196.727 80.3242C196.538 80.3242 196.386 80.4769 196.386 80.6656Z" fill="#3D444D"/>
<path d="M199.704 80.6656C199.704 80.8544 199.857 81.0071 200.046 81.0071C200.234 81.0071 200.387 80.8544 200.387 80.6656C200.387 80.4769 200.234 80.3242 200.046 80.3242C199.857 80.3242 199.704 80.4769 199.704 80.6656Z" fill="#3D444D"/>
<path d="M198.391 83.6577C198.266 83.6577 197.936 83.6368 197.727 83.4308C197.6 83.3061 197.538 83.1331 197.548 82.9311C197.562 82.6548 197.705 82.3261 197.857 81.9781C197.988 81.6779 198.124 81.367 198.187 81.0703L198.486 81.1339C198.416 81.4606 198.274 81.7857 198.137 82.0997C197.996 82.4218 197.864 82.726 197.853 82.9464C197.847 83.0619 197.876 83.1489 197.941 83.213C198.098 83.3687 198.419 83.3514 198.421 83.3519L198.441 83.6562C198.437 83.6567 198.42 83.6577 198.391 83.6577Z" fill="#3D444D"/>
</g>
<path d="M208.269 94.2666H189.217C187.663 94.2666 186.403 93.0073 186.403 91.4533V72.4012C186.403 70.8478 187.663 69.5879 189.217 69.5879H208.269C209.823 69.5879 211.083 70.8472 211.083 72.4012V91.4533C211.082 93.0073 209.823 94.2666 208.269 94.2666Z" stroke="white" stroke-width="2" stroke-miterlimit="10"/>
<path d="M302.514 106.721H206.711C204.082 106.721 201.951 108.852 201.951 111.481V135.787C201.951 138.416 204.082 140.547 206.711 140.547H210.589V149.118L224.414 140.547H302.515C305.143 140.547 307.274 138.416 307.274 135.787V111.481C307.274 108.852 305.143 106.721 302.514 106.721Z" fill="#193A5F"/>
<path d="M244.116 117.479H243.747L244.815 114.569H245.179L246.247 117.479H245.877L245.008 115.03H244.985L244.116 117.479ZM244.252 116.342H245.741V116.655H244.252V116.342ZM246.7 117.479V114.569H247.683C247.91 114.569 248.097 114.608 248.243 114.686C248.388 114.763 248.496 114.868 248.566 115.003C248.636 115.137 248.672 115.29 248.672 115.461C248.672 115.633 248.636 115.785 248.566 115.917C248.496 116.05 248.389 116.154 248.244 116.23C248.099 116.305 247.914 116.342 247.689 116.342H246.893V116.024H247.677C247.833 116.024 247.958 116.001 248.052 115.956C248.148 115.91 248.217 115.846 248.26 115.763C248.303 115.678 248.325 115.578 248.325 115.461C248.325 115.345 248.303 115.243 248.26 115.156C248.216 115.069 248.146 115.002 248.051 114.954C247.955 114.906 247.829 114.882 247.672 114.882H247.052V117.479H246.7ZM248.069 116.172L248.785 117.479H248.376L247.672 116.172H248.069ZM249.099 114.882V114.569H251.281V114.882H250.366V117.479H250.014V114.882H249.099ZM253.848 117.479H252.95V114.569H253.887C254.17 114.569 254.411 114.628 254.612 114.744C254.813 114.86 254.967 115.026 255.074 115.243C255.181 115.459 255.234 115.717 255.234 116.018C255.234 116.321 255.18 116.582 255.072 116.801C254.964 117.019 254.807 117.186 254.6 117.304C254.394 117.42 254.143 117.479 253.848 117.479ZM253.302 117.166H253.825C254.065 117.166 254.265 117.12 254.423 117.027C254.581 116.934 254.699 116.802 254.777 116.631C254.854 116.459 254.893 116.255 254.893 116.018C254.893 115.783 254.855 115.581 254.778 115.412C254.701 115.241 254.587 115.111 254.434 115.02C254.282 114.928 254.092 114.882 253.865 114.882H253.302V117.166ZM256.177 114.569V117.479H255.825V114.569H256.177ZM256.884 117.479V114.569H257.866C258.094 114.569 258.28 114.608 258.426 114.686C258.572 114.763 258.68 114.868 258.75 115.003C258.82 115.137 258.855 115.29 258.855 115.461C258.855 115.633 258.82 115.785 258.75 115.917C258.68 116.05 258.572 116.154 258.428 116.23C258.283 116.305 258.098 116.342 257.872 116.342H257.077V116.024H257.861C258.016 116.024 258.141 116.001 258.236 115.956C258.331 115.91 258.401 115.846 258.443 115.763C258.487 115.678 258.509 115.578 258.509 115.461C258.509 115.345 258.487 115.243 258.443 115.156C258.4 115.069 258.33 115.002 258.234 114.954C258.139 114.906 258.012 114.882 257.855 114.882H257.236V117.479H256.884ZM258.253 116.172L258.969 117.479H258.56L257.855 116.172H258.253ZM259.442 117.479V114.569H261.198V114.882H259.794V115.865H261.107V116.177H259.794V117.166H261.221V117.479H259.442ZM264.174 115.479H263.821C263.801 115.377 263.764 115.288 263.712 115.211C263.661 115.135 263.598 115.07 263.525 115.018C263.452 114.965 263.371 114.925 263.282 114.899C263.193 114.872 263.1 114.859 263.003 114.859C262.827 114.859 262.667 114.904 262.525 114.993C262.382 115.082 262.269 115.213 262.185 115.386C262.102 115.559 262.06 115.772 262.06 116.024C262.06 116.276 262.102 116.488 262.185 116.662C262.269 116.835 262.382 116.966 262.525 117.055C262.667 117.144 262.827 117.189 263.003 117.189C263.1 117.189 263.193 117.175 263.282 117.149C263.371 117.122 263.452 117.083 263.525 117.031C263.598 116.978 263.661 116.913 263.712 116.836C263.764 116.759 263.801 116.67 263.821 116.569H264.174C264.147 116.718 264.099 116.851 264.029 116.969C263.959 117.086 263.872 117.186 263.767 117.268C263.663 117.35 263.546 117.412 263.417 117.454C263.288 117.497 263.15 117.518 263.003 117.518C262.755 117.518 262.534 117.458 262.341 117.336C262.148 117.215 261.996 117.043 261.885 116.819C261.775 116.596 261.719 116.331 261.719 116.024C261.719 115.717 261.775 115.452 261.885 115.229C261.996 115.005 262.148 114.833 262.341 114.711C262.534 114.59 262.755 114.53 263.003 114.53C263.15 114.53 263.288 114.551 263.417 114.594C263.546 114.636 263.663 114.699 263.767 114.781C263.872 114.863 263.959 114.962 264.029 115.079C264.099 115.196 264.147 115.329 264.174 115.479ZM264.584 114.882V114.569H266.766V114.882H265.851V117.479H265.499V114.882H264.584ZM269.643 116.024C269.643 116.331 269.587 116.596 269.477 116.819C269.366 117.043 269.214 117.215 269.021 117.336C268.827 117.458 268.607 117.518 268.359 117.518C268.111 117.518 267.89 117.458 267.697 117.336C267.504 117.215 267.352 117.043 267.241 116.819C267.13 116.596 267.075 116.331 267.075 116.024C267.075 115.717 267.13 115.452 267.241 115.229C267.352 115.005 267.504 114.833 267.697 114.711C267.89 114.59 268.111 114.53 268.359 114.53C268.607 114.53 268.827 114.59 269.021 114.711C269.214 114.833 269.366 115.005 269.477 115.229C269.587 115.452 269.643 115.717 269.643 116.024ZM269.302 116.024C269.302 115.772 269.26 115.559 269.175 115.386C269.092 115.213 268.979 115.082 268.836 114.993C268.694 114.904 268.535 114.859 268.359 114.859C268.183 114.859 268.023 114.904 267.88 114.993C267.738 115.082 267.625 115.213 267.54 115.386C267.457 115.559 267.415 115.772 267.415 116.024C267.415 116.276 267.457 116.488 267.54 116.662C267.625 116.835 267.738 116.966 267.88 117.055C268.023 117.144 268.183 117.189 268.359 117.189C268.535 117.189 268.694 117.144 268.836 117.055C268.979 116.966 269.092 116.835 269.175 116.662C269.26 116.488 269.302 116.276 269.302 116.024ZM270.235 117.479V114.569H271.218C271.445 114.569 271.632 114.608 271.778 114.686C271.924 114.763 272.031 114.868 272.102 115.003C272.172 115.137 272.207 115.29 272.207 115.461C272.207 115.633 272.172 115.785 272.102 115.917C272.031 116.05 271.924 116.154 271.779 116.23C271.634 116.305 271.449 116.342 271.224 116.342H270.428V116.024H271.212C271.368 116.024 271.493 116.001 271.587 115.956C271.683 115.91 271.752 115.846 271.795 115.763C271.838 115.678 271.86 115.578 271.86 115.461C271.86 115.345 271.838 115.243 271.795 115.156C271.751 115.069 271.682 115.002 271.586 114.954C271.49 114.906 271.364 114.882 271.207 114.882H270.587V117.479H270.235ZM271.604 116.172L272.32 117.479H271.911L271.207 116.172H271.604Z" fill="white"/>
<path d="M298.336 121.486H243.7V123.13H298.336V121.486Z" fill="white"/>
<path d="M298.336 125.998H243.7V127.642H298.336V125.998Z" fill="white"/>
<path d="M268.774 130.516H243.7V132.159H268.774V130.516Z" fill="white"/>
<mask id="mask5_798_2221" style="mask-type:luminance" maskUnits="userSpaceOnUse" x="211" y="111" width="25" height="25">
<path d="M232.403 135.913H213.818C212.303 135.913 211.074 134.684 211.074 133.168V114.584C211.074 113.068 212.303 111.84 213.818 111.84H232.403C233.918 111.84 235.147 113.068 235.147 114.584V133.168C235.147 134.684 233.918 135.913 232.403 135.913Z" fill="white"/>
</mask>
<g mask="url(#mask5_798_2221)">
<path d="M235.145 111.84H211.072V135.913H235.145V111.84Z" fill="#586AFF"/>
</g>
<mask id="mask6_798_2221" style="mask-type:luminance" maskUnits="userSpaceOnUse" x="211" y="111" width="25" height="25">
<path d="M232.403 135.913H213.818C212.303 135.913 211.074 134.684 211.074 133.168V114.584C211.074 113.068 212.303 111.84 213.818 111.84H232.403C233.918 111.84 235.147 113.068 235.147 114.584V133.168C235.147 134.684 233.918 135.913 232.403 135.913Z" fill="white"/>
</mask>
<g mask="url(#mask6_798_2221)">
<path d="M217.857 129.182C217.978 131.411 218.183 132.688 218.62 133.118C218.62 133.118 220.199 132.518 222.328 132.262C224.542 131.995 228.546 132.661 228.546 132.661C228.546 132.661 229.019 127.123 228.26 123.662C227.502 120.201 226.066 118.787 224.413 118.225C222.759 117.664 220.815 118.935 220.815 118.935C220.815 118.935 217.749 127.177 217.857 129.182Z" fill="#852926"/>
<path d="M219.47 137.407L226.957 137.284C227.156 137.023 227.129 133.703 227.259 133.5C227.417 133.254 227.725 131.776 227.725 131.776C227.725 131.776 225.634 131.035 225.495 130.931C224.79 130.405 224.787 127.762 224.787 127.762H221.494C221.494 127.762 221.498 130.044 220.957 130.89C220.828 131.091 218.673 131.837 218.635 131.776L219.033 133.369L219.47 137.407Z" fill="#FEBFA7"/>
<path d="M224.929 129.548C224.787 128.695 224.785 127.762 224.785 127.762H221.493C221.493 127.762 221.495 129.418 221.168 130.417C222.237 130.51 224.098 130.328 224.929 129.548Z" fill="#FDA99B"/>
<path d="M217.156 138.251H229.409C229.265 135.543 229.208 132.015 229.208 132.015L226.954 131.275C226.954 131.275 227.844 135.795 223.195 136.098C219.435 136.343 219.435 131.439 219.435 131.439C218.157 131.793 217.179 132.157 217.179 132.157C217.179 132.157 217.226 134.925 217.156 138.251Z" fill="#DC1238"/>
<path d="M233.252 138.255C232.891 137.111 232.41 135.898 231.64 134.45C230.755 132.783 229.21 132.02 229.21 132.02C229.21 132.02 229.035 136.161 228.937 138.255H233.252Z" fill="#DC1238"/>
<path d="M218.048 138.253C217.885 135.819 217.178 132.158 217.178 132.158C215.754 132.747 213.997 135.154 213.605 137.114C213.541 137.434 213.446 137.822 213.331 138.253H218.048Z" fill="#DC1238"/>
<path d="M226.723 125.201C226.713 125.292 226.703 125.378 226.691 125.459C226.548 126.49 226.307 126.812 226.093 127.3C225.862 127.826 224.578 129.027 223.672 129.429C223.493 129.509 223.051 129.545 222.71 129.459C221.552 129.166 220.308 127.681 219.919 126.902C219.63 126.324 219.452 125.266 219.399 124.27C219.345 123.276 219.263 121.959 219.31 121.189C219.383 120 219.957 119.344 220.756 119.045C222.932 118.23 226.785 120.051 226.793 120.887C226.805 122.268 226.886 123.723 226.723 125.201Z" fill="#FEBFA7"/>
<path d="M222.396 122.35C222.396 122.35 221.686 122.105 221.051 122.105C220.744 122.105 220.498 122.376 220.41 122.538C220.39 122.576 220.749 122.407 220.896 122.407C221.075 122.407 221.561 122.537 221.992 122.523C222.254 122.514 222.396 122.35 222.396 122.35Z" fill="#491B25"/>
<path d="M223.493 122.35C223.493 122.35 224.203 122.105 224.838 122.105C225.145 122.105 225.392 122.376 225.479 122.538C225.499 122.576 225.14 122.407 224.993 122.407C224.815 122.407 224.328 122.537 223.897 122.523C223.636 122.514 223.493 122.35 223.493 122.35Z" fill="#491B25"/>
<path d="M220.224 128.492C220.043 127.335 219.626 126.545 219.588 125.363C219.562 124.545 219.571 123.342 219.627 122.673C219.704 121.751 219.973 121.482 219.973 121.482C219.89 120.593 220.458 119.904 220.537 119.482C220.666 118.798 221.396 117.139 220.901 116.899C220.82 116.86 220.724 116.828 220.619 116.81C219.992 116.691 218.997 116.971 218.469 118.287C217.744 120.094 217.717 123.996 217.717 125.452C217.717 126.235 217.715 127.795 217.858 129.183C218.667 129.047 219.444 128.762 220.224 128.492Z" fill="#852926"/>
<path d="M228.609 127.089C228.61 127.613 228.59 128.076 228.543 128.436C228.517 128.633 228.588 131.162 228.544 131.292C228.038 132.813 224.731 130.588 224.731 130.588C225.374 129.747 226.33 128.197 226.5 124.382C226.579 122.634 226.326 121.934 225.791 121.416C225.651 121.28 225.393 119.978 225.235 119.864C225.104 119.77 225.306 121.392 225.166 121.312C224.358 120.849 221.523 121.538 220.787 121.312C220.335 121.173 220.231 119.435 220.231 119.435C219.707 118.179 220.507 117.746 220.609 117.072C220.705 116.434 221.689 116.08 222.865 116.047C223.391 116.033 223.953 116.083 224.492 116.202C225.779 116.487 227.151 117.413 227.754 119.432C228.093 120.563 228.602 124.557 228.609 127.089Z" fill="#852926"/>
<path d="M223.912 126.776C223.858 126.921 223.671 127.289 223.126 127.321C222.997 127.329 222.741 127.265 222.645 127.215C222.326 127.048 222.183 126.763 222.235 126.776C222.627 126.875 223.566 126.857 223.912 126.776Z" fill="#542F38"/>
<path d="M221.081 123.408C221.081 123.591 221.23 123.74 221.414 123.74C221.599 123.74 221.748 123.591 221.748 123.408C221.748 123.223 221.599 123.074 221.414 123.074C221.23 123.074 221.081 123.224 221.081 123.408Z" fill="#451B2D"/>
<path d="M224.319 123.408C224.319 123.591 224.468 123.74 224.652 123.74C224.836 123.74 224.985 123.591 224.985 123.408C224.985 123.223 224.836 123.074 224.652 123.074C224.468 123.075 224.319 123.224 224.319 123.408Z" fill="#451B2D"/>
<path d="M223.042 126.072C222.921 126.072 222.598 126.054 222.394 125.872C222.27 125.762 222.21 125.61 222.22 125.432C222.233 125.189 222.373 124.899 222.521 124.593C222.649 124.328 222.781 124.054 222.843 123.792C222.86 123.719 222.937 123.672 223.019 123.689C223.1 123.704 223.151 123.776 223.134 123.849C223.066 124.137 222.927 124.423 222.793 124.7C222.656 124.983 222.527 125.252 222.516 125.446C222.511 125.548 222.539 125.624 222.601 125.68C222.73 125.795 222.983 125.809 223.071 125.803C223.141 125.801 223.223 125.855 223.228 125.929C223.233 126.003 223.171 126.067 223.09 126.072C223.087 126.071 223.07 126.072 223.042 126.072Z" fill="#542F38"/>
</g>
<path d="M232.399 135.913H213.814C212.299 135.913 211.07 134.684 211.07 133.168V114.584C211.07 113.068 212.299 111.84 213.814 111.84H232.399C233.914 111.84 235.143 113.068 235.143 114.584V133.168C235.143 134.684 233.914 135.913 232.399 135.913Z" stroke="white" stroke-width="2" stroke-miterlimit="10"/>
<path d="M282.046 116.18C282.046 117.344 281.103 118.287 279.939 118.287C278.774 118.287 277.831 117.344 277.831 116.18C277.831 115.016 278.774 114.072 279.939 114.072C281.102 114.072 282.046 115.016 282.046 116.18Z" fill="#FDF9F8"/>
<path d="M116.012 25.4805H57.7559V106.877H116.012V25.4805Z" fill="white" stroke="#193A5F" stroke-miterlimit="10"/>
<path d="M68.7503 62.4258H66.748V64.5384H68.7503V62.4258Z" fill="#DE5A40"/>
<path d="M102.978 62.4258H71.5127V64.5384H102.978V62.4258Z" fill="#C9CDD8"/>
<path d="M68.7503 67.5996H66.748V69.7123H68.7503V67.5996Z" fill="#DE5A40"/>
<path d="M102.978 67.5996H71.5127V69.7123H102.978V67.5996Z" fill="#C9CDD8"/>
<path d="M68.7503 72.7773H66.748V74.89H68.7503V72.7773Z" fill="#DE5A40"/>
<path d="M107.766 72.7773H71.5127V74.89H107.766V72.7773Z" fill="#C9CDD8"/>
<path d="M88.442 77.9551H71.5127V80.0677H88.442V77.9551Z" fill="#C9CDD8"/>
<path d="M83.6773 87.75H66.748V89.8627H83.6773V87.75Z" fill="#C9CDD8"/>
<path d="M100.65 52.0977H73.0127V55.7689H100.65V52.0977Z" fill="#C9CDD8"/>
<path d="M102.366 92.9199H66.748V95.0326H102.366V92.9199Z" fill="#C9CDD8"/>
<path d="M94.1894 48.5645C93.0934 45.8727 90.6246 43.8593 87.5965 43.641C87.3981 43.6268 87.1976 43.6191 86.9956 43.6191C86.7936 43.6191 86.5931 43.6263 86.3947 43.641C83.3661 43.8593 80.8978 45.8727 79.8018 48.5645H94.1894Z" fill="#DE5A40"/>
<path d="M90.4967 37.8077C90.4967 39.8588 88.929 42.2131 86.9949 42.2131C85.0609 42.2131 83.4932 39.8588 83.4932 37.8077C83.4932 35.7566 85.0609 34.0938 86.9949 34.0938C88.929 34.0938 90.4967 35.7566 90.4967 37.8077Z" fill="#DE5A40"/>
<path d="M74.3045 80.2383C68.2235 78.2615 61.6916 81.5887 59.7148 87.6697C57.738 93.7507 61.0653 100.283 67.1463 102.259C73.2273 104.236 79.7591 100.909 81.7359 94.8279C83.7127 88.7469 80.3855 82.2145 74.3045 80.2383ZM67.7487 100.407C62.691 98.7627 59.9234 93.3299 61.5675 88.2722C63.2115 83.2144 68.6443 80.4469 73.702 82.0909C78.7598 83.7349 81.5273 89.1677 79.8833 94.2255C78.2393 99.2832 72.8065 102.051 67.7487 100.407Z" fill="#586AFF"/>
<path d="M62.6095 114.803C62.1409 114.651 61.8849 114.148 62.0371 113.679L66.0991 101.461L67.7955 102.013L63.7335 114.23C63.5809 114.699 63.0776 114.955 62.6095 114.803Z" fill="#586AFF"/>
<path d="M61.8326 117.19C61.1182 116.958 60.7275 116.19 60.9595 115.476L64.2552 105.508L66.8426 106.349L63.5469 116.317C63.3144 117.032 62.547 117.423 61.8326 117.19Z" fill="#586AFF"/>
<path d="M18.9834 131.665C17.8772 136.228 19.1345 140.003 19.4317 141.099C19.7283 142.195 24.294 156.996 26.1218 158.265L27.1786 153.884C27.1786 153.884 27.1786 153.884 25.8439 147.858C24.8263 143.264 23.8188 137.771 23.8188 137.771C23.8188 137.771 25.0318 130.321 25.5005 129.312C25.9696 128.303 18.9834 131.665 18.9834 131.665Z" fill="#F7D1C3"/>
<path d="M21.8812 120.15C20.7582 120.94 17.6533 133.981 17.6533 133.981C17.6533 133.981 18.4222 135.509 21.8853 135.574C25.9803 135.651 25.8246 133.786 25.8246 133.786C25.8246 133.786 29.2205 124.495 28.5173 122.095C27.8141 119.694 21.8812 120.15 21.8812 120.15Z" fill="#FF765A"/>
<path d="M34.107 120.343C33.8424 119.255 34.5904 116.276 34.7166 113.346L28.2376 114.54C28.2376 114.54 26.3626 119.989 26.1494 120.343C28.1985 121.35 33.4593 120.337 34.107 120.343Z" fill="#FEBFA7"/>
<path d="M35.2982 103.139C37.3392 104.002 38.5609 108.331 38.5191 108.765C38.4774 109.199 38.3176 109.376 38.5878 109.879C38.858 110.383 39.0158 110.75 39.0977 111.023C39.1796 111.295 38.254 111.87 38.4276 112.221C38.6011 112.572 38.0388 112.789 38.0673 113.158C38.0958 113.527 37.7671 115.64 37.0903 116.053C36.4136 116.466 34.2043 116.255 32.7699 115.592C31.336 114.93 31.4322 112.452 31.4322 112.452C31.4322 112.452 22.406 106.013 31.1895 103.623C32.2183 103.343 34.4159 102.766 35.2982 103.139Z" fill="#FEBFA7"/>
<path d="M37.4533 104.79C36.6947 106.116 35.4338 105.812 34.84 106.988C34.3948 107.869 34.6873 109.708 34.6873 109.708C34.6873 109.708 34.2513 110.446 34.1276 109.865C33.8803 108.703 33.426 108.003 32.7731 108.204C31.4675 108.607 31.8455 110.375 32.9599 111.161C33.9144 111.834 33.1003 112.416 31.7982 114.441C31.2451 115.302 28.2049 115.154 28.2049 115.154C28.2049 115.154 28.0848 114.022 26.7577 111.614C25.3091 108.983 24.2563 108.228 24.7906 106.696C25.7126 104.052 26.9496 104.776 27.6182 103.93C27.6182 103.93 28.3351 100.549 31.2451 100.549C33.8269 100.549 33.5588 100.508 34.5647 100.241C35.76 99.9243 36.6682 99.8002 37.2081 100.487C37.8619 101.32 38.213 103.462 37.4533 104.79Z" fill="#8A5843"/>
<path d="M36.2188 206.64C36.2188 206.64 37.5621 206 38.8621 206C40.1627 206 41.0669 206.446 41.679 206.64C42.2911 206.834 48.4658 209.277 48.5421 209.957C48.6184 210.637 47.3184 210.831 45.0235 210.831C42.7287 210.831 39.8986 210.928 38.4454 210.831C36.9922 210.734 36.2727 210.443 36.2727 210.443C36.2727 210.443 35.2148 209.457 36.2188 206.64Z" fill="#193A5F"/>
<path d="M17.4736 206.64C17.4736 206.64 18.8164 206 20.117 206C21.4176 206 22.3223 206.446 22.9339 206.64C23.546 206.834 27.8767 209.277 27.953 209.957C28.0293 210.637 26.7292 210.831 24.4344 210.831C22.1396 210.831 21.1535 210.928 19.7003 210.831C18.2471 210.734 17.5276 210.443 17.5276 210.443C17.5276 210.443 16.4697 209.457 17.4736 206.64Z" fill="#193A5F"/>
<path d="M22.6488 149.033C22.572 153.182 21.7838 162.094 21.8708 169.008C21.9573 175.922 21.7568 182.222 21.7568 182.222C20.0436 192.9 17.041 207.094 17.041 207.094C17.041 207.094 21.0358 208.42 23.264 207.094C23.264 207.094 26.5678 194.767 28.8723 188.11C31.1773 181.453 32.0662 177.564 32.9369 168.806C33.8075 160.048 35.2123 150.108 35.2123 150.108L22.6488 149.033Z" fill="#193A5F"/>
<path d="M26.5176 148.777C26.7226 151.338 30.5124 168.034 31.5367 171.312C32.5609 174.59 33.8529 181.677 33.6478 182.2C33.4433 182.723 34.7932 195.835 35.2135 201.059C35.6338 206.284 36.2174 206.638 36.2174 206.638C36.2174 206.638 39.0144 207.663 41.6776 206.638C41.6776 206.638 42.2313 186.063 42.3127 179.404C42.3946 172.746 41.1647 158.702 40.8579 154.103C40.4666 148.238 40.4727 144.064 40.4727 144.064L26.5176 148.777Z" fill="#193A5F"/>
<path d="M26.7973 117.461C26.7973 117.461 27.7961 118.605 30.4848 118.605C32.0983 118.605 34.2491 117.418 34.2491 117.418L39.833 118.893C39.833 118.893 40.5489 125.835 40.7794 132.058C41.0099 138.28 40.7112 154.579 40.7112 154.579C40.7112 154.579 38.8601 154.322 33.4044 155.924C26.5159 157.948 24.4928 155.412 22.0341 153.953C22.0341 153.953 22.3415 143.581 22.0341 140.201C21.7268 136.821 21.3426 130.675 21.2658 127.755C21.189 124.836 21.5731 121.148 21.8805 120.149C21.8805 120.15 24.5691 118.152 26.7973 117.461Z" fill="#FF765A"/>
<path d="M65.1904 108.632C64.5249 108.875 64.0792 108.982 64.0792 108.982C63.8665 108.296 62.9134 108.746 62.5715 109.064C62.2291 109.382 61.8663 109.975 61.0755 111.287C60.2848 112.598 57.9737 115.205 55.975 116.125C53.9769 117.045 51.452 118.829 51.452 118.829C51.452 118.829 47.8974 119.261 45.8926 119.563L46.3383 124.851C46.3383 124.851 53.3551 124.395 54.2277 123.422C55.0998 122.45 58.8591 119.038 61.2089 116.15C61.7218 115.519 62.3278 114.384 63.0569 114.085C65.0515 113.269 65.4301 112.698 65.9165 112.438C66.6462 112.047 66.001 111.83 66.5561 111.554C67.1113 111.28 66.3989 111 66.6788 110.327C66.8711 109.864 66.1989 109.478 66.5414 109.159C66.3318 108.272 65.2169 108.619 65.1904 108.632Z" fill="#F7D1C3"/>
<path d="M49.48 118.732C49.7817 119.113 50.9378 120.306 50.98 122.629C51.0223 124.951 50.6035 126.141 50.6035 126.141C50.6035 126.141 42.3432 127.74 39.9542 127.463C37.5653 127.187 37.8955 125.146 36.6081 123.261C34.0986 119.586 39.8316 118.89 39.8316 118.89C45.8923 119.56 49.48 118.732 49.48 118.732Z" fill="#FF765A"/>
<path d="M253.105 202.886C250.386 184.53 246.39 165.925 241.658 147.904C241.523 147.917 241.456 147.923 241.321 147.936C246.07 165.973 250.072 184.607 252.774 202.986C252.907 202.946 252.973 202.927 253.105 202.886Z" fill="#AC8616"/>
<path d="M249.101 181.472C249.101 181.472 247.253 178.078 238.59 176.309C238.59 176.309 244.141 184.961 249.101 181.472Z" fill="#AC8616"/>
<path d="M249.099 181.478C249.099 181.478 249.365 177.671 256.728 173.229C256.728 173.229 255.155 182.998 249.099 181.478Z" fill="#AC8616"/>
<path d="M247.738 175.164C247.738 175.164 246.52 171.527 238.035 170.436C238.035 170.436 243.299 178.483 247.738 175.164Z" fill="#AC8616"/>
<path d="M247.735 175.165C247.735 175.165 247.364 171.35 254.901 167.674C254.901 167.674 253.225 176.795 247.735 175.165Z" fill="#AC8616"/>
<path d="M246.428 168.886C246.428 168.886 245.749 164.939 237.48 164.434C237.48 164.434 242.54 172.083 246.428 168.886Z" fill="#AC8616"/>
<path d="M246.426 168.885C246.426 168.885 245.47 164.935 253.114 161.996C253.114 161.996 251.329 170.645 246.426 168.885Z" fill="#AC8616"/>
<path d="M245.156 162.558C245.156 162.558 244.889 158.311 236.757 158.178C236.757 158.178 241.772 165.673 245.156 162.558Z" fill="#AC8616"/>
<path d="M245.153 162.555C245.153 162.555 243.714 158.417 251.462 156.072C251.462 156.072 249.533 164.469 245.153 162.555Z" fill="#AC8616"/>
<path d="M243.885 156.1C243.885 156.1 243.875 151.657 235.669 151.559C235.669 151.559 240.884 159.174 243.885 156.1Z" fill="#AC8616"/>
<path d="M243.884 156.096C243.884 156.096 242.101 151.784 250.042 149.799C250.042 149.799 247.893 158.185 243.884 156.096Z" fill="#AC8616"/>
<path d="M242.357 151.282C242.357 151.282 244.142 147.042 240.807 141.338C240.807 141.338 238.279 144.425 242.357 151.282Z" fill="#AC8616"/>
<path d="M252.921 210.668C249.617 187.24 253.797 170.864 267.83 152.259L267.517 152.02C253.413 170.719 249.212 187.178 252.532 210.724L252.921 210.668Z" fill="#FFDCA8"/>
<path d="M251.346 186.683C251.346 186.683 250.56 182.644 242.186 176.061C242.186 176.061 244.357 188.353 251.346 186.683Z" fill="#FFDCA8"/>
<path d="M251.349 186.681C251.349 186.681 253.297 182.442 263.507 182.041C263.507 182.041 257.567 190.783 251.349 186.681Z" fill="#FFDCA8"/>
<path d="M252.736 179.452C252.736 179.452 253.238 175.469 245.244 169.031C245.244 169.031 246.186 180.648 252.736 179.452Z" fill="#FFDCA8"/>
<path d="M252.735 179.45C252.735 179.45 254.464 175.174 264.541 176.148C264.541 176.148 257.868 183.866 252.735 179.45Z" fill="#FFDCA8"/>
<path d="M254.937 172.459C254.937 172.459 256.653 168.628 249.034 162.322C249.034 162.322 248.887 173.299 254.937 172.459Z" fill="#FFDCA8"/>
<path d="M254.938 172.458C254.938 172.458 256.584 168.042 266.267 170.313C266.267 170.313 258.936 177.026 254.938 172.458Z" fill="#FFDCA8"/>
<path d="M257.936 165.745C257.936 165.745 260.685 162.212 253.464 155.828C253.464 155.828 252.339 166.312 257.936 165.745Z" fill="#FFDCA8"/>
<path d="M257.936 165.746C257.936 165.746 259.673 161.209 268.869 164.596C268.869 164.596 260.858 170.343 257.936 165.746Z" fill="#FFDCA8"/>
<path d="M261.716 159.373C261.716 159.373 265.199 156.289 258.487 149.453C258.487 149.453 256.435 159.681 261.716 159.373Z" fill="#FFDCA8"/>
<path d="M261.72 159.376C261.72 159.376 263.708 154.855 272.532 159.147C272.532 159.147 263.716 163.942 261.72 159.376Z" fill="#FFDCA8"/>
<path d="M265.375 155.028C265.375 155.028 270.361 153.292 273.294 147.434C273.294 147.434 267.803 146.989 265.375 155.028Z" fill="#FFDCA8"/>
<path d="M252.181 206.325C253.762 187.56 259.946 175.535 274.238 163.434L274.036 163.195C259.672 175.357 253.456 187.444 251.867 206.303L252.181 206.325Z" fill="#E3B62B"/>
<path d="M255.217 187.417C255.217 187.417 255.32 184.146 249.936 177.621C249.936 177.621 249.449 187.541 255.217 187.417Z" fill="#E3B62B"/>
<path d="M255.219 187.415C255.219 187.415 257.498 184.447 265.56 185.852C265.56 185.852 259.357 191.649 255.219 187.415Z" fill="#E3B62B"/>
<path d="M257.589 182.031C257.589 182.031 258.69 179.02 253.579 172.672C253.579 172.672 252.249 181.859 257.589 182.031Z" fill="#E3B62B"/>
<path d="M257.59 182.035C257.59 182.035 259.704 179.001 267.417 181.453C267.417 181.453 260.822 186.329 257.59 182.035Z" fill="#E3B62B"/>
<path d="M260.555 176.968C260.555 176.968 262.579 174.279 257.737 168.098C257.737 168.098 255.67 176.604 260.555 176.968Z" fill="#E3B62B"/>
<path d="M260.558 176.969C260.558 176.969 262.632 173.814 269.806 177.207C269.806 177.207 262.874 181.192 260.558 176.969Z" fill="#E3B62B"/>
<path d="M264.097 172.251C264.097 172.251 266.877 169.967 262.36 163.791C262.36 163.791 259.616 171.75 264.097 172.251Z" fill="#E3B62B"/>
<path d="M264.099 172.254C264.099 172.254 266.266 169.02 272.86 173.198C272.86 173.198 265.569 176.318 264.099 172.254Z" fill="#E3B62B"/>
<path d="M268.195 167.936C268.195 167.936 271.469 166.124 267.431 159.684C267.431 159.684 264.006 167.288 268.195 167.936Z" fill="#E3B62B"/>
<path d="M268.191 167.935C268.191 167.935 270.552 164.756 276.695 169.575C276.695 169.575 268.942 171.82 268.191 167.935Z" fill="#E3B62B"/>
<path d="M271.831 165.172C271.831 165.172 276.043 164.66 279.38 160.601C279.38 160.601 275.161 159.332 271.831 165.172Z" fill="#E3B62B"/>
<path d="M249.504 208.452C247.923 189.687 241.738 177.662 227.446 165.561L227.648 165.322C242.013 177.484 248.228 189.571 249.817 208.43L249.504 208.452Z" fill="#FFC107"/>
<path d="M246.469 189.55C246.469 189.55 246.366 186.279 251.75 179.754C251.75 179.754 252.236 189.673 246.469 189.55Z" fill="#FFC107"/>
<path d="M246.47 189.55C246.47 189.55 244.191 186.582 236.129 187.987C236.129 187.987 242.333 193.783 246.47 189.55Z" fill="#FFC107"/>
<path d="M244.099 184.164C244.099 184.164 242.997 181.152 248.109 174.805C248.109 174.805 249.438 183.992 244.099 184.164Z" fill="#FFC107"/>
<path d="M244.103 184.168C244.103 184.168 241.989 181.134 234.275 183.586C234.275 183.586 240.871 188.462 244.103 184.168Z" fill="#FFC107"/>
<path d="M241.133 179.097C241.133 179.097 239.108 176.408 243.95 170.227C243.95 170.227 246.017 178.733 241.133 179.097Z" fill="#FFC107"/>
<path d="M241.131 179.102C241.131 179.102 239.057 175.947 231.883 179.339C231.883 179.339 238.814 183.325 241.131 179.102Z" fill="#FFC107"/>
<path d="M237.591 174.384C237.591 174.384 234.812 172.099 239.328 165.924C239.328 165.924 242.073 173.883 237.591 174.384Z" fill="#FFC107"/>
<path d="M237.591 174.387C237.591 174.387 235.424 171.153 228.829 175.331C228.829 175.331 236.121 178.452 237.591 174.387Z" fill="#FFC107"/>
<path d="M233.5 170.069C233.5 170.069 230.226 168.257 234.263 161.816C234.263 161.816 237.689 169.421 233.5 170.069Z" fill="#FFC107"/>
<path d="M233.497 170.068C233.497 170.068 231.136 166.888 224.993 171.708C224.993 171.708 232.746 173.953 233.497 170.068Z" fill="#FFC107"/>
<path d="M229.862 167.305C229.862 167.305 225.65 166.793 222.313 162.733C222.313 162.733 226.532 161.465 229.862 167.305Z" fill="#FFC107"/>
<path d="M256.19 210.291H245.445C243.067 210.291 241.056 208.532 240.741 206.175L238.332 188.17H263.303L260.894 206.175C260.579 208.532 258.568 210.291 256.19 210.291Z" stroke="#21295B" stroke-miterlimit="10" stroke-linecap="round" stroke-linejoin="round"/>
<path d="M240.027 200.824L240.743 206.177C241.059 208.533 243.07 210.293 245.447 210.293H256.193C258.571 210.293 260.581 208.533 260.897 206.177L261.613 200.824H240.027Z" fill="#193A5F"/>
<path d="M264.979 183.857H236.748V188.005H264.979V183.857Z" stroke="#21295B" stroke-miterlimit="10" stroke-linecap="round" stroke-linejoin="round"/>
</g>
<defs>
<clipPath id="clip0_798_2221">
<rect width="336" height="224" fill="white"/>
</clipPath>
</defs>
</svg>
